<svg xmlns="http://www.w3.org/2000/svg" width="1900" height="1900" fill="none">
  <circle cx="950" cy="950" r="950" fill="#808080"/>
  <path fill="#1e1e1e" d="M1360.14 1144.88c-7.84 0-14.74 6.62-21.92 21.08-81.08 164.41-221.12 280.74-383.174 280.74-187.38 0-303.419-169.15-303.419-402.83 0-395.834 220.548-624.697 414.263-624.697 90.52 0 145.8 56.885 145.8 147.41 0 107.439-61.04 164.324-61.04 202.216 0 17.009 10.58 27.308 31.56 27.308 84.29 0 183.22-96.855 183.22-233.682 0-132.669-115.47-230.186-309.18-230.186-320.145 0-604.665 296.804-604.665 707.471 0 317.88 181.522 527.94 461.601 527.94 297.274 0 469.164-295.77 469.164-391.77 0-21.26-10.87-31-22.21-31Z"/>
</svg>